<?xml version="1.0" encoding="UTF-8"?>
<svg id="Layer_1" data-name="Layer 1" xmlns="http://www.w3.org/2000/svg" width="1007.64" height="187.16" viewBox="0 0 1007.64 187.16">
  <defs>
    <style>
      .cls-1 {
        fill: #c8bcce;
      }

      .cls-2 {
        fill: #802ec0;
      }

      .cls-3 {
        fill: #eeedef;
      }

      .cls-4 {
        fill: #f48462;
      }

      .cls-5 {
        fill: #fff;
      }

      .cls-6 {
        fill: #ddd5e2;
      }

      .cls-7 {
        fill: #5c69a5;
      }

      .cls-8 {
        fill: #01c3ab;
      }

      .cls-9 {
        fill: #ece8ef;
      }

      .cls-10 {
        fill: #9fdcff;
      }

      .cls-11 {
        fill: #a37b90;
      }

      .cls-12 {
        fill: #b1a5b7;
      }

      .cls-13 {
        fill: #6876aa;
      }

      .cls-14 {
        fill: #4d9dc1;
      }

      .cls-15 {
        fill: #465884;
      }

      .cls-16 {
        fill: #92b4ea;
      }

      .cls-17 {
        fill: #c7c7c7;
      }

      .cls-18 {
        fill: #68b6d8;
      }

      .cls-19 {
        fill: #f7b369;
      }
    </style>
  </defs>
  <path class="cls-4" d="M834.94,65.29s6.29,51.49,34.31,65.03c37.96,18.34,53.18-18.26,53.18-18.26l-20.02-17.94s-19.33,1.18-29.87-10.91c-10.54-12.08-16.54-24.51-16.54-24.51l-21.07,6.58Z"/>
  <path class="cls-4" d="M856.89,64.46s2.4-11.69-3.62-18.22c-4.09-4.43-15.31-9.19-18.05-7.49-2.74,1.7,4.3,7.75,4.3,7.75,0,0-12.33-8.33-17.46-8.04-5.14.29-2.27,5.54-2.27,5.54,0,0-5.07-3.07-8.55-.81-3.48,2.26,1.66,6.61,1.66,6.61,0,0-6.5-.92-4.65,4.39,1.84,5.31,14.4,13.11,21.5,15.55,7.1,2.44,10.19,2.52,10.19,2.52l16.95-7.79Z"/>
  <path d="M823.9,54.66c-.18,0-.36-.07-.5-.21-.27-.28-.26-.72.02-.99,5.02-4.86,11.06-9.18,11.12-9.23.31-.22.75-.15.97.16.22.31.15.75-.16.97-.06.04-6.02,4.31-10.96,9.09-.14.13-.31.2-.49.2Z"/>
  <path d="M847.9,60.08c-.06,0-.12,0-.18-.02-7.09-1.94-8.82-12.99-8.89-13.46-.06-.38.21-.74.59-.79.38-.06.74.21.79.59.02.11,1.67,10.62,7.88,12.32.37.1.59.49.49.86-.08.31-.37.51-.67.51Z"/>
  <path class="cls-2" d="M930.64,33.03s14.2-5.17,23.04,6.61c8.85,11.78,7.81,62.61,7.81,62.61l-38.46,2.08,2.27-56.27,5.33-15.04Z"/>
  <path class="cls-8" d="M909.75,86.49l-12.84,1.78s-11.46,12.48-11.76,26.37-2.85,48.96-2.85,48.96c0,0,9.97,5.37,29.18,7.37,19.21,2,42.21-5.76,42.21-5.76,0,0-7.26-69.35-7.26-75.17,0-3.94-36.67-3.54-36.67-3.54Z"/>
  <path class="cls-2" d="M467.63,173.92s35.5,5.03,50.29-1.77c14.79-6.8,6.45-45.91,6.45-45.91,0,0-8.03-53.57-19.56-54.71-11.52-1.14-21.7.3-21.7.3l-14.22,45.52-1.27,56.57Z"/>
  <path class="cls-2" d="M296.69,32.36s27.72,38.45-1.58,56.14c-29.31,17.68-28.1-7.91-28.1-7.91l18.42-48.22h11.26Z"/>
  <path class="cls-13" d="M266.7,71.69s-15.15,2.17-24.96,20c-9.81,17.83-18.04,67-16.54,68.55,1.5,1.55,34.22,6.21,61.35,6.21s35.63-1.04,38.24-2.59c2.62-1.55-8.57-73.56-23.59-80.23-15.02-6.68-18.38-17.28-34.5-11.94Z"/>
  <path class="cls-8" d="M262.93,72.49s-23.8,37.31-28.5,61.46c-4.7,24.15-5.61,41.24-5.61,41.24l86.48.54,1.55-65.69-23.65-36.91-10.7-5.42-19.57,4.79Z"/>
  <path class="cls-13" d="M262.93,72.49s-12.14,44.92-14.7,60.62c-2.56,15.69-3.09,30.69-3.09,30.69l-15.87-2.37,6.06-36.84,21.66-47.13,5.95-4.97Z"/>
  <path class="cls-2" d="M262.93,72.49s-15.54-3.08-33.49,13.3-37.85,55.77-29.54,71.4c8.91,16.76,38.72,17.78,38.72,17.78l1.53-34.07,8.93-49.45,13.85-18.96Z"/>
  <path class="cls-15" d="M266.62,76.78c-2.18,0-3.64-.23-3.79-.26-.34-.06-.57-.38-.52-.72.06-.34.38-.57.72-.52.1.02,10.43,1.65,18.22-4.24.28-.21.67-.16.88.12.21.28.15.67-.12.88-5.28,3.99-11.49,4.73-15.39,4.73Z"/>
  <path class="cls-15" d="M236.94,143.13c-.15,0-.31-.05-.44-.16-.1-.08-10.1-8.17-18.99-12.72-.34-.18-.48-.6-.3-.94.18-.34.6-.48.94-.3,9.03,4.62,19.14,12.8,19.24,12.88.3.24.34.68.1.98-.14.17-.34.26-.54.26Z"/>
  <path class="cls-4" d="M283.33,58.82l-.19,16.41s-3.01,4.68-12.62,5.35c-7.16.5-9.38-3.2-9.38-3.2l1.9-14.34,17.38-3.62,2.91-.61Z"/>
  <path d="M280.42,59.43c-.05.45-.22.97-.49,1.58-3.76,8.15-13.82,9.81-17.96,10.13l1.07-8.09,17.38-3.62Z"/>
  <path class="cls-4" d="M259.81,25.61s-8.85,20.47-5.58,31.94c3.26,11.47,13.72,9.62,19.97,7.37,6.25-2.25,9.14-6.1,9.14-6.1,0,0,5.85,1.96,9.74-3.49,3.89-5.45,1.45-11.69-1.89-13.1-3.34-1.42-7.3,1.01-7.3,1.01l3.09-5.95s-13.21-30.13-27.16-11.68Z"/>
  <path d="M284.62,52.02c-.2,0-.4-.09-.54-.25-.25-.3-.21-.74.09-.98l6.53-5.47c.3-.25.74-.21.98.09.25.3.21.74-.09.98l-6.53,5.47c-.13.11-.29.16-.45.16Z"/>
  <path d="M291.23,51.93c-.1,0-.2-.02-.3-.07l-4.14-1.97c-.35-.17-.5-.58-.33-.93.17-.35.58-.5.93-.33l4.14,1.97c.35.17.5.58.33.93-.12.25-.37.4-.63.4Z"/>
  <path class="cls-2" d="M283.89,43.24s-7.18-.68-11.74-6.56c-4.56-5.88-6.71-11.91-6.71-11.91,0,0-3.03.52-4.96,2.95-1.42,1.78-3.08,4.37-3.08,4.37,0,0-.21-8.27,3.94-12.36,4.14-4.08,7.72-2.69,7.72-2.69,0,0,9.11-5.24,18.45,2.95,9.34,8.19,5.05,23.13,5.05,23.13,0,0-4.72-1.85-8.66.12Z"/>
  <path d="M260.16,50.74c-.31,0-.59-.21-.67-.52-1.24-4.73,2.4-7.67,2.55-7.79.3-.24.74-.19.98.12.24.3.19.74-.11.98-.13.1-3.07,2.51-2.07,6.34.1.37-.13.75-.5.85-.06.02-.12.02-.18.02Z"/>
  <path d="M256.96,43.44s-.09,0-.13-.01c-.38-.07-.63-.44-.55-.82l.97-5.02-.81-.95c-.25-.29-.22-.73.08-.98.29-.25.73-.22.98.08l1.03,1.2c.14.16.2.38.16.59l-1.03,5.36c-.06.33-.36.57-.68.57Z"/>
  <path d="M268.71,44.99s-.08,0-.12-.01c-.38-.07-.63-.43-.57-.81l.89-5.17-1.02-1.39c-.23-.31-.16-.75.15-.97.31-.23.75-.16.97.15l1.19,1.63c.11.15.16.34.12.53l-.94,5.46c-.06.34-.35.58-.69.58Z"/>
  <path d="M257.1,33.65c-.33,0-.63-.24-.69-.58-.06-.38.19-.74.57-.8l3.52-.6c.38-.06.74.19.8.57.06.38-.19.74-.57.8l-3.52.6s-.08.01-.12.01Z"/>
  <path d="M272.55,35.08c-.06,0-.12,0-.18-.02l-6.62-1.79c-.37-.1-.59-.48-.49-.86.1-.37.48-.59.86-.49l6.62,1.79c.37.1.59.48.49.86-.08.31-.37.52-.67.52Z"/>
  <path d="M263.27,58.32c-2.56,0-3.93-3.12-3.99-3.26-.09-.2-.07-.43.03-.61.1-.19.29-.32.51-.35l7.08-1.07c.24-.04.48.06.64.24.16.19.2.44.12.67-.15.43-1.52,4.17-4.14,4.37-.08,0-.16,0-.25,0ZM261.02,55.33c.48.73,1.31,1.68,2.39,1.59,1.03-.08,1.91-1.29,2.44-2.33l-4.83.73Z"/>
  <path class="cls-2" d="M285.29,23.16s-.69-20.65,15.13-15.78c15.83,4.87,5.21,22.7-4.14,26.65-9.35,3.94-13.25-4.55-13.25-4.55l2.25-6.31Z"/>
  <path class="cls-15" d="M270.32,81.35c-6.16,0-9.62-3.43-9.67-3.48-.27-.27-.26-.71.01-.98.27-.27.71-.27.99,0,.31.32,7.81,7.64,21-1.34.32-.22.75-.13.97.18.22.32.13.75-.18.97-5.17,3.52-9.58,4.64-13.11,4.64Z"/>
  <polygon class="cls-4" points="145.9 116.07 168.75 176.07 138.15 174.82 128.99 128.31 145.9 116.07"/>
  <path class="cls-8" d="M19.79,135.27s6.4-41.51,31.13-57.7,66.91-5.98,79.16,1.63c16.05,9.98,27.85,50.27,27.85,50.27l-19.18,18.09,3.11,27.59-86.98.14,1.59-40.24-36.68.21Z"/>
  <path d="M622.57,159.07l-.46,15.75s25.63,2.54,51.75,1.55c18.83-.72,33.25-3.44,33.25-3.44v-51.57h-69.44l-15.1,37.71Z"/>
  <path class="cls-4" d="M264.72,115.74s-5.42-28.39-8.22-31.47c-2.79-3.07-21.18-11.19-23.53-8.96-2.34,2.23.04,5.04.04,5.04,0,0-3.5-2-4.81.09s1.24,5.34,1.24,5.34c0,0-2.79-1.76-2.42,2.14.37,3.89,8,11.01,8,11.01,0,0,.44,7.95,5.33,16.5,4.89,8.55,19.77,8.93,19.77,8.93l4.6-8.63Z"/>
  <path d="M247.64,88.21c-.11,0-.22-.03-.32-.08l-14.58-7.6c-.34-.18-.47-.6-.3-.94.18-.34.6-.47.94-.3l14.58,7.6c.34.18.47.6.3.94-.12.24-.37.38-.62.38Z"/>
  <path d="M243.7,95.42c-.13,0-.25-.03-.37-.11l-14.26-8.93c-.33-.2-.43-.63-.22-.96.2-.33.64-.42.96-.22l14.26,8.93c.33.2.43.63.22.96-.13.21-.36.33-.59.33Z"/>
  <path class="cls-2" d="M111.55,26.39s5.94-16.09-2.77-21.12c-4.5-2.6-13.47,5.34-13.47,5.34,0,0-15.01,2.33-18.84,9.58-3.83,7.25.13,17.68.13,17.68,0,0,5.47-2.27,8.9-1.49,3.43.78,26.06-10,26.06-10Z"/>
  <path class="cls-2" d="M239.32,124.59s29.73,55.63,69.29,52.63c39.56-3,23.78-68.44,11.36-86.1-12.42-17.66-36.64-23.18-36.64-23.18l-.84,45.4-13.22-11.26-29.96,22.51Z"/>
  <path class="cls-15" d="M307.47,137.03c-.17,0-.34-.06-.47-.18l-24.98-22.99c-.28-.26-.3-.7-.04-.99.26-.28.7-.3.99-.04l24.98,22.99c.28.26.3.7.04.99-.14.15-.33.22-.51.22Z"/>
  <path class="cls-15" d="M309.2,127.26c-6.16,0-14.71-2.49-15.19-2.63-.3-.09-.51-.37-.5-.69,0-.32.23-.59.53-.66,1.78-.43,17.49-4.09,20.83-1.13.56.49.81,1.15.72,1.89-.1.91-.57,1.65-1.38,2.19-1.13.75-2.94,1.03-5.01,1.03ZM297.13,124.02c5.18,1.28,13.59,2.84,16.31,1.04.47-.31.71-.68.77-1.18.03-.29-.04-.5-.26-.69-1.83-1.62-10.37-.5-16.82.83Z"/>
  <path class="cls-4" d="M84.97,55.09l.52,15.29s3.23,4.36,13.26,4.97c7.47.45,10.04-1.08,10.04-1.08l-1.3-7.73-1.28-7.54-18.18-3.34-3.05-.56Z"/>
  <path d="M88.02,55.69c.05.47.24,1.01.53,1.64,4.02,8.46,14.53,10.07,18.84,10.36l-1.21-8.43-18.16-3.57Z"/>
  <path class="cls-4" d="M109.13,20.18s9.46,21.26,6.18,33.25c-3.28,12-14.2,10.19-20.74,7.92-6.54-2.27-9.6-6.25-9.6-6.25,0,0-6.08,2.11-10.2-3.53s-1.65-12.17,1.82-13.69,7.63.97,7.63.97l-3.29-6.17s13.44-31.58,28.2-12.49Z"/>
  <path d="M83.32,48.86c-.19,0-.37-.07-.51-.22l-5.79-6.14c-.26-.28-.25-.72.03-.99.28-.26.72-.25.99.03l5.79,6.14c.26.28.25.72-.03.99-.13.13-.31.19-.48.19Z"/>
  <path d="M77.19,47.21c-.34,0-.64-.25-.69-.59-.06-.38.2-.74.58-.79l4.01-.61c.38-.06.74.2.79.59.06.38-.2.74-.58.79l-4.01.61s-.07,0-.11,0Z"/>
  <path d="M98.87,40.86c-.35,0-.65-.26-.69-.61l-.7-5.5c-.05-.38.22-.73.6-.78.39-.05.73.22.78.6l.7,5.5c.05.38-.22.73-.6.78-.03,0-.06,0-.09,0Z"/>
  <path d="M110.67,39.83c-.34,0-.64-.25-.69-.6l-.79-5.4c-.06-.38.21-.74.59-.79.39-.06.74.21.79.59l.79,5.4c.06.38-.21.74-.59.79-.03,0-.07,0-.1,0Z"/>
  <path d="M94.97,31.73c-.11,0-.22-.02-.32-.08-.34-.18-.48-.6-.3-.94,1.45-2.82,5.02-2.09,5.18-2.05.38.08.62.45.53.83-.08.38-.45.61-.83.53-.11-.02-2.68-.54-3.64,1.33-.12.24-.37.38-.62.38Z"/>
  <path d="M112.34,30.54c-.18,0-.37-.07-.5-.21-.07-.07-1.79-1.81-3.95-1.03-.36.13-.76-.06-.89-.42-.13-.36.06-.76.42-.89,3.03-1.1,5.34,1.27,5.44,1.38.27.28.26.72-.02.99-.13.13-.31.19-.48.19Z"/>
  <path d="M105.31,51.81c-.52,0-3.81-.12-6.46-3.19-.25-.29-.22-.73.07-.98.29-.25.73-.22.98.07,2.36,2.74,5.29,2.7,5.42,2.71.39,0,.7.29.71.68.01.38-.29.7-.67.72,0,0-.03,0-.06,0Z"/>
  <path class="cls-2" d="M110.44,23.38s-.07-2.21-4.71-2.3c-4.64-.09-7.39,3.14-7.39,3.14,0,0,.83,6.56-5.22,11.09-5.4,4.05-10.45,3.66-10.45,3.66l-6.08-1.08-.8-7.87,10.34-15.31,22.15-7.05,2.15,15.75Z"/>
  <g>
    <path class="cls-18" d="M112.53,43.36c-3.36,0-6.29-2.93-6.64-6.78-.38-4.06,2.23-7.63,5.82-7.96,3.58-.33,6.8,2.7,7.18,6.76.37,4.06-2.24,7.63-5.82,7.96-.18.02-.36.02-.54.02ZM112.24,29.99c-.14,0-.27,0-.41.02-2.82.26-4.86,3.15-4.56,6.44s2.84,5.75,5.66,5.5c2.82-.26,4.86-3.15,4.56-6.44-.29-3.13-2.6-5.52-5.25-5.52Z"/>
    <path class="cls-18" d="M95.92,46.02c-1.72,0-3.37-.59-4.71-1.71-1.52-1.26-2.45-3.04-2.64-5-.18-1.97.41-3.88,1.67-5.4,1.26-1.52,3.04-2.45,5-2.64,4.06-.39,7.66,2.62,8.04,6.68.38,4.06-2.62,7.66-6.68,8.04-.23.02-.46.03-.69.03ZM95.94,32.63c-.18,0-.37,0-.56.03-1.59.15-3.04.91-4.06,2.14-1.02,1.23-1.51,2.79-1.36,4.38.15,1.59.91,3.04,2.14,4.06,1.23,1.02,2.8,1.5,4.38,1.36,3.29-.3,5.72-3.23,5.42-6.52-.29-3.11-2.91-5.44-5.97-5.44Z"/>
    <path class="cls-18" d="M102.25,37.13c-.26,0-.52-.15-.64-.41-.16-.35,0-.76.34-.92.28-.13,2.81-1.24,4.46-.33.34.19.46.61.27.95-.19.34-.61.46-.95.27-.87-.48-2.64.13-3.2.38-.09.04-.19.06-.29.06Z"/>
    <path class="cls-18" d="M89.27,39.94c-.13,0-.26-.04-.37-.11-4.13-2.63-12.58-1.28-12.66-1.27-.38.06-.74-.2-.8-.58-.06-.38.19-.74.57-.8.37-.06,9.06-1.44,13.64,1.47.32.21.42.64.21.96-.13.21-.36.32-.59.32Z"/>
  </g>
  <path d="M106.92,45.28c-.07,0-.14-.01-.21-.03-.37-.11-.57-.5-.46-.87,1.18-3.81-1.76-6.4-1.79-6.42-.29-.25-.32-.69-.07-.98.25-.29.69-.32.98-.07.15.13,3.65,3.22,2.21,7.89-.09.3-.37.49-.67.49Z"/>
  <path class="cls-14" d="M86.46,156.93l31.43,19.19c1.14.7,2.92.4,3.97-.65l42.47-42.81c1.05-1.06.98-2.48-.17-3.18l-31.43-19.19c-1.14-.7-2.92-.4-3.97.65l-42.47,42.81c-1.05,1.06-.98,2.48.17,3.18Z"/>
  <path class="cls-18" d="M90.13,159.16l31.43,19.19c1.14.7,2.92.4,3.97-.65l42.47-42.81c1.05-1.06.98-2.48-.17-3.18l-31.43-19.19c-1.14-.7-2.92-.4-3.97.65l-42.47,42.81c-1.05,1.06-.98,2.48.17,3.18Z"/>
  <path class="cls-4" d="M81.19,123.5c1.77-2.14,9.65-5.55,12.43-5.38,4.53.28,11.37.81,12.95,1.54,2.41,1.12,7.89,5.52,7.89,5.52l-2.26,3.19s20.83,10.87,19.14,15.16c-1.15,2.92-10.39-1.26-10.39-1.26,0,0,9.24,5.12,7.64,8.32-1.61,3.2-13.51-1.84-13.51-1.84,0,0,9.19,5.89,4.31,7.34s-38.06-7.67-39.8-17.44c-1.14-6.43-1.71-11.15,1.61-15.16Z"/>
  <path class="cls-4" d="M23.15,135.51s-7.09,26.95,17.6,30.6c24.69,3.66,46.91-21,46.91-21l3.08-24.84-46.17,14.85-21.41.38Z"/>
  <path d="M120.95,142.98c-.11,0-.21-.02-.32-.08l-13.72-6.99c-.34-.17-.48-.59-.31-.94.18-.34.6-.48.94-.3l13.72,6.99c.34.17.48.59.31.94-.12.24-.37.38-.62.38Z"/>
  <path d="M115.07,149.47c-.11,0-.21-.02-.31-.08l-12.82-6.48c-.34-.17-.48-.59-.31-.94.17-.34.59-.48.94-.31l12.82,6.48c.34.17.48.59.31.94-.12.24-.37.38-.62.38Z"/>
  <path class="cls-7" d="M99.53,76.41c-4.68,0-10.24-1.16-14.54-5.54-.27-.27-.27-.72,0-.99.27-.27.72-.27.99,0,8.51,8.66,22.42,3.77,22.56,3.72.36-.13.76.06.89.42.13.36-.06.76-.42.89-.08.03-4.24,1.49-9.49,1.49Z"/>
  <path class="cls-2" d="M657.28,69.47s-21.64.32-37.84,18.32c-16.2,18-20.17,57.18-20.17,57.18l41.86,9.11,87.27-25.83s-15.27-34.09-29.24-48.24c-13.97-14.16-41.88-10.54-41.88-10.54Z"/>
  <path class="cls-4" d="M653.48,56.86l.52,15.29s3.23,4.36,13.26,4.97c7.47.45,10.04-1.08,10.04-1.08l-1.3-7.73-1.28-7.54-18.18-3.34-3.05-.56Z"/>
  <path d="M656.53,57.46c.05.47.24,1.01.53,1.64,4.02,8.46,14.53,10.07,18.84,10.36l-1.21-8.43-18.16-3.57Z"/>
  <path class="cls-4" d="M677.64,21.95s9.46,21.26,6.18,33.25-14.2,10.19-20.74,7.92c-6.54-2.27-9.6-6.25-9.6-6.25,0,0-6.08,2.11-10.2-3.53-4.12-5.64-1.65-12.17,1.82-13.69,3.47-1.52,7.63.97,7.63.97l-3.29-6.17s13.44-31.58,28.2-12.49Z"/>
  <path d="M676.99,47.04c-.07,0-.14-.01-.21-.03-.37-.11-.57-.5-.46-.87,1.17-3.79-1.67-6.32-1.79-6.43-.29-.25-.32-.69-.07-.98.25-.29.69-.32.98-.07.15.13,3.65,3.22,2.21,7.89-.09.3-.37.49-.67.49Z"/>
  <path d="M651.82,50.63c-.19,0-.37-.07-.51-.22l-5.79-6.14c-.26-.28-.25-.72.03-.99.28-.26.72-.25.99.03l5.79,6.14c.26.28.25.72-.03.99-.13.13-.31.19-.48.19Z"/>
  <path d="M645.69,48.98c-.34,0-.64-.25-.69-.59-.06-.38.2-.74.58-.79l4.01-.61c.37-.05.74.2.79.59.06.38-.2.74-.58.79l-4.01.61s-.07,0-.11,0Z"/>
  <path d="M667.37,42.63c-.35,0-.65-.26-.69-.61l-.7-5.5c-.05-.38.22-.73.6-.78.38-.05.73.22.78.6l.7,5.5c.05.38-.22.73-.6.78-.03,0-.06,0-.09,0Z"/>
  <path d="M679.18,41.59c-.34,0-.64-.25-.69-.6l-.79-5.4c-.06-.38.21-.74.59-.79.37-.06.74.21.79.59l.79,5.4c.06.38-.21.74-.59.79-.03,0-.07,0-.1,0Z"/>
  <path d="M663.48,33.49c-.11,0-.22-.02-.32-.08-.34-.18-.48-.6-.3-.94,1.45-2.82,5.02-2.09,5.18-2.05.38.08.62.45.53.83-.08.38-.45.61-.83.53-.12-.03-2.68-.54-3.64,1.33-.12.24-.37.38-.62.38Z"/>
  <path d="M680.84,32.31c-.18,0-.37-.07-.5-.21-.07-.07-1.79-1.81-3.95-1.03-.36.13-.76-.06-.89-.42-.13-.36.06-.76.42-.89,3.03-1.1,5.34,1.27,5.44,1.38.27.28.25.72-.02.99-.13.13-.31.19-.48.19Z"/>
  <path class="cls-5" d="M671.3,77.37c-9.5,0-17.26-4.39-17.65-4.62-.33-.19-.45-.62-.26-.95.19-.33.62-.45.95-.26.11.06,11.27,6.36,22.8,3.81.37-.08.75.15.83.53.08.38-.15.75-.53.83-2.09.46-4.15.66-6.14.66Z"/>
  <path d="M673.81,53.57c-.52,0-3.81-.12-6.45-3.19-.25-.29-.22-.73.07-.98.29-.25.73-.22.98.07,2.36,2.74,5.29,2.71,5.42,2.71.34-.03.7.29.71.68,0,.38-.29.7-.67.72,0,0-.03,0-.06,0Z"/>
  <path class="cls-2" d="M646.16,39.68c3.44-.55,6.57.93,6.71,1.69.47,2.66,3.51,3.57,3.66.56.27-5.32-3.8-6.43-3.8-6.43,0,0,6.26-.65,11.76-6.36,5.51-5.71,6.93-8.11,6.93-8.11l7.92,5.17s8.73-17.57-13.31-16.37c-22.03,1.2-22.33,20.51-22.33,20.51,0,0-6.11,1.63-5.71,5.16.4,3.52,4.1,7.26,4.1,7.26,0,0,.64-2.54,4.05-3.08Z"/>
  <g>
    <path class="cls-8" d="M729.52,120.79s3.49-4.48,11.19-7.7c12.01-5.01,20.68-5.7,20.68-5.7l-.21,6.73-31.67,6.67Z"/>
    <path class="cls-8" d="M688.04,111.1l-.31,10.18,51.42,2.74s-1.75-5.73-16.19-9.35c-12.84-3.22-34.91-3.58-34.91-3.58Z"/>
    <polygon class="cls-8" points="764.15 111.44 762.36 169.65 731.97 175.82 685.72 175.03 686.42 115.25 732.51 117.66 764.15 111.44"/>
    <polygon class="cls-8" points="731.07 117.47 729.26 176.37 733.89 175.98 735.71 116.99 731.07 117.47"/>
  </g>
  <g>
    <path class="cls-4" d="M767.83,148.49s10.38,2.86,6.37,7.21c-4.01,4.35-23.48,3.7-24.63-2.32-1.15-6.02,18.26-4.89,18.26-4.89Z"/>
    <path class="cls-4" d="M768.05,139.58s10.38,2.86,6.37,7.21c-4.01,4.35-23.48,3.7-24.63-2.32-1.15-6.02,18.26-4.89,18.26-4.89Z"/>
    <path class="cls-4" d="M762.96,131.35c2.42-.41,4.93-.29,7.22.6,2.02.78,3.68,2.11,2.26,4.31-2.84,4.4-19.92,6.77-21.83,1.69-1.41-3.76,7.57-5.8,12.35-6.6Z"/>
    <path d="M754.41,141.14c-.37,0-.67-.28-.7-.65-.02-.38.27-.72.65-.74l13.63-.86c.37-.03.72.27.74.65.02.38-.27.72-.65.74l-13.63.86s-.03,0-.04,0Z"/>
    <path d="M770.51,150.15s-14.99-.21-14.99-.21c-.39,0-.69-.32-.69-.71,0-.38.32-.71.71-.69l14.98.21c.39,0,.69.32.69.71,0,.38-.32.69-.7.69Z"/>
  </g>
  <path class="cls-2" d="M671.42,164.01s-21.72,6.8-52.96.75c-32.19-6.23-22.2-50.69-7.2-68.99,15-18.3,31.05-23.47,31.05-23.47l-3.05,55.94,32.15,7.73v28.04Z"/>
  <path class="cls-4" d="M663.34,162.23s8.52,4.44,20.02.35c14.04-5-7.64-28.63-7.64-28.63l-12.7,8.75.32,19.54Z"/>
  <path class="cls-4" d="M681.03,150.15s-9.51,5.04-4.65,8.42c4.86,3.38,23.73-1.49,23.54-7.61-.19-6.13-18.89-.81-18.89-.81Z"/>
  <path class="cls-4" d="M678.89,141.51s-9.51,5.04-4.65,8.42,23.73-1.49,23.54-7.61c-.19-6.13-18.89-.81-18.89-.81Z"/>
  <path class="cls-4" d="M682.07,132.37c-2.46.13-4.88.79-6.92,2.15-1.8,1.2-3.13,2.86-1.27,4.7,3.73,3.68,20.91,2.28,21.68-3.09.56-3.97-8.65-4.01-13.49-3.76Z"/>
  <path d="M678.89,142.2c-.34,0-.63-.25-.69-.59-.06-.38.2-.74.58-.8l13.5-2.12c.38-.05.74.2.8.58.06.38-.2.74-.58.8l-13.5,2.12s-.07,0-.11,0Z"/>
  <path d="M680.97,151.57c-.31,0-.59-.21-.67-.52-.1-.37.13-.75.5-.85l11.71-3.03c.37-.1.75.13.85.5.1.37-.13.75-.5.85l-11.71,3.03c-.06.02-.12.02-.17.02Z"/>
  <path class="cls-5" d="M663.02,143.39c-.41-.01-.71-.34-.7-.72l.3-8.5c-3.53-1.04-24.34-7.05-38.1-8.53-.38-.04-.66-.38-.62-.77.04-.38.39-.67.77-.62,15.13,1.62,38.63,8.66,38.87,8.73.3.09.51.38.5.69l-.32,9.04c-.01.38-.32.67-.7.67Z"/>
  <path class="cls-5" d="M642.32,128.94c-.1,0-.2-.02-.3-.07-1.26-.6-12.38-6.03-13.46-10.49-.21-.87-.04-1.69.48-2.38.52-.68,1.23-1.02,2.05-.97,4.21.24,11.06,11.56,11.83,12.85.16.26.12.6-.08.83-.13.15-.32.23-.51.23ZM630.94,116.43c-.32,0-.57.13-.79.43-.27.35-.34.74-.23,1.2.64,2.65,6.57,6.32,10.49,8.43-2.9-4.47-7.15-9.92-9.39-10.05-.02,0-.05,0-.07,0Z"/>
  <path class="cls-8" d="M872.5,80.27l-9.61,49.01s33.66,18.04,47.29,6.53c13.62-11.51-1.98-48.4-1.98-48.4l-.94-.56c-3.97.23-10.04-.3-15.25-1.09-3.34-.5-6.63-1.31-9.85-2.35l-9.66-3.13Z"/>
  <path class="cls-4" d="M928.19,72.01l.54,16.4s-2.8,4.81-12.37,5.9c-7.13.81-9.51-2.78-9.51-2.78l1.26-14.41,17.2-4.38,2.89-.74Z"/>
  <path d="M925.3,72.74c-.03.45-.18.98-.43,1.6-3.4,8.31-13.38,10.41-17.49,10.91l.72-8.13,17.2-4.38Z"/>
  <path class="cls-4" d="M903.23,39.86s-7.94,20.84-4.17,32.16c3.77,11.31,14.13,9.01,20.27,6.49,6.14-2.52,8.86-6.49,8.86-6.49,0,0,5.93,1.7,9.58-3.92,3.64-5.62.94-11.74-2.46-13.01-3.4-1.27-7.25,1.33-7.25,1.33l2.82-6.08s-14.53-29.52-27.65-10.47Z"/>
  <path d="M911.58,71.19c-1.59,0-3.12-.98-3.21-1.03-.22-.14-.34-.39-.31-.65.02-.26.19-.48.43-.58l5.43-2.24c.23-.09.49-.06.68.09.2.15.3.39.28.63-.18,1.79-.83,2.96-1.93,3.49-.44.21-.9.29-1.36.29ZM910.5,69.61c.62.2,1.32.29,1.85.03.4-.19.7-.58.9-1.16l-2.75,1.13Z"/>
  <path d="M929.14,65.16c-.19,0-.38-.08-.51-.23-.26-.28-.24-.73.04-.99l6.29-5.75c.28-.26.72-.24.99.04.26.28.24.73-.04.99l-6.29,5.75c-.13.12-.3.18-.47.18Z"/>
  <path d="M935.74,64.78c-.09,0-.18-.02-.27-.06l-4.23-1.79c-.36-.15-.52-.56-.37-.91.15-.36.56-.52.91-.37l4.23,1.79c.36.15.52.56.37.91-.11.27-.37.43-.64.43Z"/>
  <path class="cls-2" d="M928.06,56.41s-7.21-.36-12.02-6.04-7.23-11.6-7.23-11.6c0,0-3.01.65-4.83,3.16-1.34,1.85-2.89,4.51-2.89,4.51,0,0-.57-8.26,3.39-12.52,3.96-4.26,7.6-3.03,7.6-3.03,0,0,8.87-5.64,18.56,2.13,9.69,7.77,6.06,22.89,6.06,22.89,0,0-4.79-1.64-8.64.5Z"/>
  <path d="M904.65,64.95c-.3,0-.57-.19-.67-.49-1.45-4.67,2.06-7.76,2.21-7.89.29-.25.73-.22.98.07s.22.73-.07.98c-.12.11-2.96,2.64-1.79,6.43.11.37-.09.76-.46.87-.07.02-.14.03-.21.03Z"/>
  <path d="M901.13,57.8s-.07,0-.1,0c-.38-.06-.64-.41-.59-.79l.75-5.06-.85-.91c-.26-.28-.25-.72.03-.99.28-.26.72-.25.99.03l1.08,1.16c.15.16.21.37.18.58l-.79,5.4c-.05.35-.35.6-.69.6Z"/>
  <path d="M912.94,58.83s-.06,0-.09,0c-.38-.05-.65-.4-.6-.78l.66-5.2-1.08-1.34c-.24-.3-.19-.74.11-.98.3-.24.74-.19.98.11l1.26,1.58c.12.15.17.34.15.52l-.7,5.5c-.04.35-.34.61-.69.61Z"/>
  <path d="M900.84,48.02c-.32,0-.61-.22-.68-.55-.08-.38.16-.75.53-.83l3.49-.75c.38-.08.75.16.83.53.08.38-.16.75-.53.83l-3.49.75s-.1.02-.15.02Z"/>
  <path d="M916.35,48.76c-.05,0-.1,0-.15-.02l-6.69-1.5c-.38-.08-.61-.46-.53-.83.08-.38.46-.61.83-.53l6.69,1.5c.38.08.61.46.53.83-.07.32-.36.55-.68.55Z"/>
  <path class="cls-4" d="M917.78,176.25s48.38,3.5,61.13-6.21c22.81-17.36-5.24-50.03-5.24-50.03l-17.45,19.05-35.66,16.26-2.77,20.92Z"/>
  <path class="cls-8" d="M944.51,88.64s15.24,3.66,25.77,17.53c8,10.53,14.34,21.64,14.34,21.64l-36.61,14.49-8.51-7.52,5.01-46.14Z"/>
  <path class="cls-2" d="M923.97,101.67c-3.37,0-7.75-4.48-9.18-6.05-2.07,1.45-7.9,5.33-10.13,4.62-.47-.15-.82-.49-.98-.96-.96-2.85,2.23-7.61,2.59-8.15.12-.17.31-.29.53-.3.21-.02.42.07.56.22.15.16,3.54,3.67,10.5,2.34,7.09-1.36,10.29-5.37,10.32-5.41.19-.24.51-.33.8-.22.29.11.47.39.45.7-.15,2.14-1.09,12.82-5.11,13.2-.11.01-.23.02-.34.02ZM916.14,95.03c1.93,2.05,5.71,5.45,8.04,5.24,1.84-.17,3.15-5.45,3.67-10-1.66,1.43-4.81,3.55-9.74,4.49-.69.13-1.35.22-1.98.27ZM906.99,92.59c-1,1.63-2.53,4.65-1.99,6.24.01.04.02.06.08.08,1.15.37,5.09-1.85,8.14-3.91-3.19-.34-5.25-1.64-6.23-2.41Z"/>
  <path class="cls-4" d="M932.29,157.08s-9.74-4.15-13.5-6.14c-3.76-1.99-19.04-2.59-24.28-2.84-5.24-.25-18.56,6.3-17.14,8.46,1.42,2.16,13.62.52,13.62.52,0,0-10.5,9.39-9.16,11.69,1.33,2.3,5.21.31,5.21.31,0,0-3.3,2.77-.5,4.38,2.8,1.61,14.73-6.41,14.73-6.41,0,0-5.96,9.32-4.06,10.65,1.91,1.33,10.42-6.69,10.42-6.69,0,0,3.85,8.49,15.22,4.37,7.87-2.85,8.27-10.18,8.27-10.18l1.17-8.11Z"/>
  <path d="M887.95,168.16c-.2,0-.4-.09-.54-.25-.25-.3-.2-.74.09-.98l11.03-9.14c.3-.24.74-.2.98.09.25.3.2.74-.09.98l-11.03,9.14c-.13.11-.29.16-.45.16Z"/>
  <path d="M890.99,157.78c-.22,0-.44-.1-.57-.3-.22-.31-.15-.75.17-.97l4.87-3.43c.32-.22.75-.15.97.17.22.31.15.75-.17.97l-4.87,3.43c-.12.09-.26.13-.4.13Z"/>
  <path class="cls-17" d="M884.02,138.3c-.43-.02-.72-.35-.7-.74l.5-8.71c.02-.38.36-.69.74-.66.38.02.68.35.66.74l-.5,8.71c-.02.37-.33.66-.7.66Z"/>
  <path class="cls-17" d="M948.02,143s-.05,0-.08,0c-.32-.04-.57-.29-.61-.6-.3-2.29-1.67-13.8.88-16.12.47-.42,1.04-.57,1.66-.43.61.14,1.1.53,1.42,1.13,1.84,3.42-2.16,14.34-2.62,15.57-.1.27-.37.45-.65.45ZM949.43,127.19c-.1,0-.19.04-.28.12-1.27,1.15-1.19,6.98-.77,11.81,1.26-3.95,2.7-9.61,1.69-11.48-.17-.32-.36-.4-.51-.43-.05-.01-.09-.02-.14-.02Z"/>
  <path class="cls-10" d="M802.05,170.83h87.33c1.94,0,3.16-2.09,2.21-3.78l-29.89-53.11c-.45-.8-1.29-1.29-2.21-1.29h-87.33c-1.94,0-3.16,2.09-2.21,3.78l29.89,53.11c.45.8,1.29,1.29,2.21,1.29Z"/>
  <rect class="cls-10" x="799.21" y="170.19" width="109.21" height="8.16" rx="1.77" ry="1.77" transform="translate(1707.63 348.53) rotate(180)"/>
  <g>
    <path class="cls-15" d="M374.48,113.7s8.56-30.11,11.75-29.43-21.64,67.53-23.56,67.11c-1.91-.42,11.81-37.68,11.81-37.68Z"/>
    <path class="cls-11" d="M368.34,150.4c-1.82.72-11.24-37.84-11.24-37.84,0,0-4.69-14.43-6.53-23.6-.81-4-1.06-7.01-.15-7.38.61-.24,1.75,2.32,3.2,6.59,5.77,17.14,16.16,61.66,14.72,62.23Z"/>
    <path class="cls-12" d="M374.56,154.67h-17.69c-1.15,0-2.12-.85-2.3-2l-4.54-29.45c-.22-1.44.87-2.74,2.3-2.74h26.77c1.43,0,2.52,1.3,2.3,2.74l-4.54,29.45c-.18,1.15-1.15,2-2.3,2Z"/>
    <path class="cls-19" d="M353.63,88.17l-3.04.79c-.81-4-1.06-7.01-.15-7.38.61-.24,1.75,2.32,3.2,6.59Z"/>
    <path class="cls-12" d="M315.71,167.56h99.56v13.24h-99.56c-3.57,0-6.46-2.9-6.46-6.46v-.32c0-3.57,2.9-6.46,6.46-6.46Z" transform="translate(724.51 348.36) rotate(180)"/>
    <path class="cls-1" d="M313.36,167.56h63.81c1.2,0,2.17.97,2.17,2.17v8.91c0,1.2-.97,2.17-2.17,2.17h-63.81c-3.36,0-6.09-2.73-6.09-6.09v-1.06c0-3.36,2.73-6.09,6.09-6.09Z" transform="translate(686.6 348.36) rotate(180)"/>
    <path class="cls-9" d="M311.41,169.84h65v8.41h-65c-2.29,0-4.15-1.86-4.15-4.15v-.11c0-2.29,1.86-4.15,4.15-4.15Z" transform="translate(683.67 348.08) rotate(180)"/>
    <path class="cls-9" d="M390.05,167.56h-60.71c-3.56,0-6.44-2.88-6.44-6.44s2.88-6.44,6.44-6.44h60.71c1.11,0,2.02.9,2.02,2.02v8.85c0,1.11-.9,2.02-2.02,2.02Z"/>
    <path class="cls-1" d="M404.85,167.56h-60.71c-3.56,0-6.44-2.88-6.44-6.44s2.88-6.44,6.44-6.44h60.71c1.11,0,2.02.9,2.02,2.02v8.85c0,1.11-.9,2.02-2.02,2.02Z"/>
    <path class="cls-5" d="M406.87,165.07h-62.27c-2.26,0-4.09-1.83-4.09-4.09s1.83-4.09,4.09-4.09h62.27v8.18Z"/>
  </g>
  <g>
    <path class="cls-3" d="M187.59,116.84s-12.24-6.96-23.4-7.89c-11.16-.93-20.92,1.24-20.92,1.24l2.63,9.88,41.69-3.23Z"/>
    <g>
      <path class="cls-3" d="M185.88,116.75s5.89-4.79,17.98-7.11,23.56-2.04,23.56-2.04l2.17,11.31-43.71-2.16Z"/>
      <polygon class="cls-2" points="241.52 179.82 151.9 179.82 141.35 115.36 230.99 115.36 241.52 179.82"/>
      <polygon class="cls-6" points="200.37 179.82 192.57 179.82 182.5 115.36 189.99 115.36 200.37 179.82"/>
      <path class="cls-12" d="M241.53,180.52h-89.64c-.39,0-.7-.31-.7-.7s.31-.7.7-.7h89.64c.39,0,.7.31.7.7s-.31.7-.7.7Z"/>
      <path class="cls-12" d="M217.35,180.52c-.33,0-.62-.23-.68-.57l-1.52-8.22c-.13-.73-.77-1.26-1.51-1.26h-37.47c-.44,0-.86.19-1.15.52-.29.33-.43.77-.37,1.21l.93,7.54c.05.38-.22.73-.61.78-.38.04-.73-.22-.78-.61l-.93-7.54c-.1-.83.16-1.67.71-2.3.56-.63,1.36-.99,2.19-.99h37.47c1.41,0,2.62,1.01,2.88,2.4l1.52,8.22c.07.38-.18.74-.56.81-.04,0-.09.01-.13.01Z"/>
    </g>
  </g>
  <path class="cls-5" d="M801.34,120.3h-29.6c-.38,0-.7-.31-.7-.7s.31-.7.7-.7h29.6c.38,0,.7.31.7.7s-.31.7-.7.7Z"/>
  <path class="cls-2" d="M483.2,26.92s-15.14-5.7-22.63,7.3c-7.48,13-5.8,44.55-5.8,44.55l26.25-.85,2.18-51Z"/>
  <path class="cls-2" d="M497.08,29.12s9.86-10.17,19.67.57,12.8,43.51,12.8,43.51l-25.1,2.8-7.37-46.89Z"/>
  <path class="cls-8" d="M523.12,171.3s36.63,15.63,42.03-12.79c6.9-36.3-38.45-76.64-38.45-76.64l-3.59,89.43Z"/>
  <path class="cls-8" d="M500.01,70.07s1.93.53,4.8,1.46l-19.83,1.17s-2.67,26.19-3.64,56.22c-.68,21.28-.12,37.78.36,47.15l-29.85-2.15s.26-85.09,10.82-94.34c10.55-9.25,25.1-9.36,25.1-9.36l12.24-.16Z"/>
  <path class="cls-8" d="M530.42,179.89l-15.72-.36c.89-11.41.69-31.78-2.07-58.9-3.52-34.49-6.06-48.03-6.41-48.46,7.56,2.44,20.21,7.01,22.79,12.64,3.56,7.78,1.41,95.09,1.41,95.09Z"/>
  <path class="cls-4" d="M529.55,112.89s-.13,17.05,8.08,17.98c14.27,1.62,15.4-26.67,15.4-26.67l-23.48,8.69Z"/>
  <path class="cls-4" d="M485.27,57.27l-.54,16.4s2.8,4.81,12.37,5.9c7.13.81,9.51-2.78,9.51-2.78l-1.26-14.41-17.2-4.38-2.89-.74Z"/>
  <path d="M488.16,58.01c.03.45.18.98.42,1.6,3.4,8.31,13.38,10.41,17.49,10.91l-.72-8.13-17.2-4.38Z"/>
  <path class="cls-4" d="M510.24,25.12s7.94,20.84,4.17,32.16c-3.77,11.31-14.13,9.01-20.27,6.49-6.14-2.52-8.86-6.49-8.86-6.49,0,0-5.93,1.7-9.58-3.92-3.64-5.62-.94-11.74,2.46-13.01,3.4-1.27,7.25,1.33,7.25,1.33l-2.82-6.08s14.53-29.52,27.65-10.47Z"/>
  <path d="M484.32,50.42c-.17,0-.34-.06-.47-.18l-6.29-5.75c-.28-.26-.3-.7-.04-.99.26-.28.7-.3.99-.04l6.29,5.75c.28.26.3.7.04.99-.14.15-.33.23-.51.23Z"/>
  <path d="M477.72,50.04c-.27,0-.53-.16-.64-.43-.15-.35.02-.76.37-.91l4.23-1.79c.35-.15.76.02.91.37.15.35-.02.76-.37.91l-4.23,1.79c-.09.04-.18.06-.27.06Z"/>
  <path class="cls-2" d="M485.41,41.68s7.21-.36,12.02-6.04c4.81-5.67,7.23-11.6,7.23-11.6,0,0,3.01.65,4.83,3.16,1.34,1.85,2.89,4.51,2.89,4.51,0,0,.57-8.26-3.39-12.52-3.96-4.26-7.6-3.03-7.6-3.03,0,0-8.87-5.64-18.56,2.13-9.69,7.77-6.06,22.88-6.06,22.88,0,0,4.79-1.64,8.64.5Z"/>
  <path d="M508.82,50.22c-.07,0-.14-.01-.21-.03-.37-.11-.57-.5-.46-.87,1.17-3.79-1.67-6.32-1.79-6.43-.29-.25-.32-.69-.07-.98.25-.29.69-.32.98-.07.15.13,3.65,3.22,2.21,7.89-.09.3-.37.49-.67.49Z"/>
  <path d="M512.33,43.06c-.34,0-.64-.25-.69-.6l-.79-5.4c-.03-.21.04-.42.18-.58l1.08-1.16c.26-.28.7-.29.99-.03.28.26.3.7.03.99l-.85.91.75,5.06c.06.38-.21.74-.59.79-.03,0-.07,0-.1,0Z"/>
  <path d="M500.52,44.1c-.35,0-.65-.26-.69-.61l-.7-5.5c-.02-.19.03-.38.15-.52l1.26-1.58c.24-.3.68-.35.98-.11.3.24.35.68.11.98l-1.08,1.34.66,5.2c.05.38-.22.73-.6.78-.03,0-.06,0-.09,0Z"/>
  <path d="M512.62,33.28h-3.49c-.38,0-.7-.31-.7-.7s.31-.7.7-.7h3.49c.38,0,.7.31.7.7s-.31.7-.7.7Z"/>
  <path d="M497.12,34.03c-.34,0-.64-.26-.69-.61-.05-.38.22-.73.6-.78l5.63-.75c.39-.05.73.22.78.6.05.38-.22.73-.6.78l-5.63.75s-.06,0-.09,0Z"/>
  <path d="M503.47,57.97c-.34,0-.67-.06-.98-.19-1.89-.79-2.63-4.18-2.71-4.57-.05-.25.04-.52.24-.68.2-.16.48-.2.71-.1l6.37,2.7c.22.1.38.3.42.54.04.24-.06.48-.25.64-.24.2-2.07,1.66-3.79,1.66ZM501.53,54.29c.36.97.88,1.96,1.49,2.21.6.25,1.57-.13,2.35-.58l-3.85-1.63Z"/>
  <path class="cls-17" d="M476.9,40.56c-.25,0-.5-.14-.62-.38-3.04-5.97-.13-12.28,0-12.55.16-.35.58-.5.93-.33.35.16.5.58.34.93-.03.06-2.73,5.97,0,11.32.17.34.04.76-.31.94-.1.05-.21.08-.32.08Z"/>
  <path class="cls-5" d="M497.41,80.25c-3.89,0-8.54-1.39-13.16-6.09-.27-.27-.27-.72,0-.99.27-.27.72-.27.99,0,10.4,10.58,20.87,3.12,20.97,3.05.31-.23.75-.16.97.15.23.31.16.75-.15.97-.07.05-4.06,2.9-9.63,2.9Z"/>
  <path class="cls-4" d="M545.74,91.9s-10.31-6.72-12.34-3.52c-2.03,3.2,6.17,8.08,6.17,8.08l6.17-4.56Z"/>
  <path class="cls-16" d="M536.95,91.74s7.43-26.11,10.19-25.52c2.76.59-18.77,58.56-20.43,58.2-1.66-.37,10.24-32.68,10.24-32.68Z"/>
  <path class="cls-4" d="M547.35,91.67s-17.3,2.18-20.66,6.39c-3.36,4.21,1.49,5.09,1.49,5.09,0,0-5.95,2.63-4.94,5.33,1,2.7,5.12,1.19,5.12,1.19,0,0-3.6,3.74-1.43,5.96,2.17,2.22,21,.81,24.03-2.03,3.03-2.83-1.69-5.85-1.69-5.85,0,0,5.45-3.75,4.58-6.46-.86-2.72-5.87-2.79-5.87-2.79,0,0,6.31-6.06-.63-6.83Z"/>
  <path d="M528.18,103.86c-.31,0-.59-.2-.67-.51-.1-.37.12-.75.49-.86l17.56-4.77c.37-.1.75.12.86.49.1.37-.12.75-.49.86l-17.56,4.77c-.06.02-.12.02-.18.02Z"/>
  <path d="M529.48,111.47c-.32,0-.6-.21-.68-.54-.09-.38.14-.75.52-.84l16.3-3.88c.37-.09.75.14.84.52.09.38-.14.75-.52.84l-16.3,3.88c-.05.01-.11.02-.16.02Z"/>
  <g>
    <path class="cls-12" d="M557.77,166.2h85.58c1.48,0,2.68,1.2,2.68,2.68v9.82c0,1.48-1.2,2.68-2.68,2.68h-85.58c-4.15,0-7.52-3.37-7.52-7.52v-.14c0-4.15,3.37-7.52,7.52-7.52Z"/>
    <path class="cls-1" d="M579.68,166.36h75.29c1.39,0,2.52,1.13,2.52,2.52v10.14c0,1.39-1.13,2.52-2.52,2.52h-75.29c-3.91,0-7.08-3.17-7.08-7.08v-1.02c0-3.91,3.17-7.08,7.08-7.08Z"/>
    <path class="cls-5" d="M657.49,178.6h-76.62c-2.66,0-4.82-2.16-4.82-4.82s2.16-4.82,4.82-4.82h76.62v9.64Z"/>
    <path class="cls-1" d="M557.55,166.48h84.69c4.19,0,7.59-3.4,7.59-7.59s-3.4-7.59-7.59-7.59h-84.69c-.11,0-.2.09-.2.2v14.78c0,.11.09.2.2.2Z"/>
    <path class="cls-9" d="M555.55,166.48h65.48c4.19,0,7.59-3.4,7.59-7.59s-3.4-7.59-7.59-7.59h-65.48c-1.31,0-2.38,1.06-2.38,2.38v10.42c0,1.31,1.06,2.38,2.38,2.38Z"/>
    <path class="cls-5" d="M553.17,163.55h67.55c2.66,0,4.82-2.16,4.82-4.82s-2.16-4.82-4.82-4.82h-67.55v9.64Z"/>
  </g>
  <g>
    <path class="cls-12" d="M758.73,178.91h68.06c4.19,0,7.59-3.4,7.59-7.59s-3.4-7.59-7.59-7.59h-68.06c-.48,0-.87.39-.87.87v13.44c0,.48.39.87.87.87Z"/>
    <path class="cls-1" d="M756.57,178.91h52.67c4.19,0,7.59-3.4,7.59-7.59s-3.4-7.59-7.59-7.59h-52.67c-1.19,0-2.16.97-2.16,2.16v10.85c0,1.19.97,2.16,2.16,2.16Z"/>
    <path class="cls-9" d="M754.41,175.98h55.06c2.66,0,4.82-2.16,4.82-4.82s-2.16-4.82-4.82-4.82h-55.06v9.64Z"/>
  </g>
  <polygon class="cls-17" points="508.42 116.31 543.87 126.32 532.1 181.72 493.98 177.92 508.42 116.31"/>
  <polygon class="cls-17" points="514.32 118.04 549.76 128.05 540.38 182.67 500.25 178.06 514.32 118.04"/>
  <path class="cls-4" d="M478.15,145.54s26.61-9.59,33.75-8.03c7.15,1.56,4.25,24.15,2.66,28.43-1.58,4.27-30.38,2.75-30.38,2.75l-9.47-9.91,3.43-13.24Z"/>
  <path class="cls-4" d="M511.9,137.51s17.81,8.22,19.24,14.85c1.43,6.63-20.57-4.25-20.57-4.25l1.32-10.6Z"/>
  <path class="cls-4" d="M504.35,166.54s-13.62,5.25-8.74,8.23c4.88,2.97,18.03-5.2,18.96-8.84.93-3.63-9.75-6.32-9.75-6.32l-.48,6.93Z"/>
  <path d="M498.79,169.65c-.22,0-.43-.1-.56-.28-.15-.21-.18-.49-.06-.72l1.79-3.62c.17-.35.59-.49.93-.32.35.17.49.59.32.93l-1.2,2.41,3.03-.48c.38-.05.74.2.8.58.06.38-.2.74-.58.8l-4.36.69s-.07,0-.11,0Z"/>
  <path d="M516.76,150.58c-.16,0-.31-.05-.44-.16-1.96-1.59-5.49-4.19-6.61-4.39-.38-.07-.63-.43-.56-.81.07-.38.43-.63.81-.56,1.79.32,6.35,3.95,7.24,4.68.3.24.34.68.1.98-.14.17-.34.26-.54.26Z"/>
  <path d="M516.08,158.54c-.13,0-.26-.04-.38-.11l-8.9-5.8c-.32-.21-.41-.64-.2-.96.21-.32.64-.42.96-.2l8.9,5.8c.32.21.41.64.2.96-.13.21-.36.32-.58.32Z"/>
  <path class="cls-8" d="M465.76,77.2s-43.12,23.57-44.48,68.73c-1.16,38.54,64.37,29.72,64.37,29.72l2.69-34.78-28.71-9.09,6.13-54.58Z"/>
  <path class="cls-5" d="M461.31,133.18s-.08,0-.12,0c-1.01-.17-9.92-1.76-11.56-5.33-.43-.93-.34-1.94.24-2.91.73-1.21,1.7-1.48,2.39-1.5,3.85,0,9.04,7.78,9.63,8.67.15.23.15.53,0,.76-.13.2-.35.32-.58.32ZM452.32,124.83c-.34,0-.81.1-1.25.82-.35.58-.4,1.09-.17,1.61.93,2.03,5.77,3.51,8.85,4.2-2.18-3-5.46-6.63-7.44-6.63Z"/>
  <path class="cls-5" d="M473.96,138.31c-.09,0-.18-.02-.26-.05l-12.65-5.13c-.36-.14-.53-.55-.38-.91.15-.36.55-.53.91-.38l12.65,5.13c.36.14.53.55.38.91-.11.27-.37.44-.65.44Z"/>
</svg>